<?xml version="1.0" standalone="no"?><!DOCTYPE svg PUBLIC "-//W3C//DTD SVG 1.1//EN" "http://www.w3.org/Graphics/SVG/1.1/DTD/svg11.dtd"><svg t="1558438075017" class="icon" style="" viewBox="0 0 1024 1024" version="1.1" xmlns="http://www.w3.org/2000/svg" p-id="6718" xmlns:xlink="http://www.w3.org/1999/xlink" width="200" height="200"><defs><style type="text/css"></style></defs><path d="M654.595025 353.505583H363.352016c-11.045924 0-19.999863-8.953939-19.999863-19.999863V42.262711c0-11.045924 8.953939-19.999863 19.999863-19.999863h291.244009c11.045924 0 19.999863 8.953939 19.999864 19.999863v291.243009c-0.001 11.045924-8.954939 19.999863-20.000864 19.999863z m-271.243146-39.999726h251.244283V62.262574H383.351879v251.243283zM340.060175 1000.124163H48.816166c-11.045924 0-19.999863-8.954939-19.999863-19.999863V688.880291c0-11.045924 8.953939-19.999863 19.999863-19.999863h291.244009c11.045924 0 19.999863 8.953939 19.999864 19.999863v291.244009c0 11.044924-8.953939 19.999863-19.999864 19.999863z m-271.244145-39.999726h251.244282V708.880154H68.81603v251.244283zM978.58781 1000.124163H687.342801c-11.044924 0-19.999863-8.954939-19.999863-19.999863V688.880291c0-11.045924 8.954939-19.999863 19.999863-19.999863h291.245009c11.044924 0 19.999863 8.953939 19.999864 19.999863v291.244009c0 11.044924-8.953939 19.999863-19.999864 19.999863z m-271.245145-39.999726h251.245282V708.880154H707.342665v251.244283z" p-id="6719"></path><path d="M749.101379 703.69119c-11.044924 0-19.999863-8.953939-19.999863-19.999864V511.163506H304.21942v172.52782c0 11.045924-8.953939 19.999863-19.999863 19.999864s-19.999863-8.953939-19.999863-19.999864V491.163642c0-11.045924 8.953939-19.999863 19.999863-19.999863h464.881822c11.045924 0 19.999863 8.953939 19.999863 19.999863v192.527684c0 11.046924-8.953939 19.999863-19.999863 19.999864z" p-id="6720"></path><path d="M516.659968 498.400593c-11.045924 0-19.999863-8.953939-19.999863-19.999863V361.238531c0-11.045924 8.953939-19.999863 19.999863-19.999864s19.999863 8.953939 19.999863 19.999864v117.163199c0 11.045924-8.953939 19.998863-19.999863 19.998863z" p-id="6721"></path></svg>