<?xml version="1.0" encoding="UTF-8"?>
<svg width="30px" height="30px" viewBox="0 0 30 30" version="1.1" xmlns="http://www.w3.org/2000/svg" xmlns:xlink="http://www.w3.org/1999/xlink">
    <!-- Generator: Sketch 51.3 (57544) - http://www.bohemiancoding.com/sketch -->
    <title>fuwenben copy</title>
    <desc>Created with Sketch.</desc>
    <defs></defs>
    <g id="Page-1" stroke="none" stroke-width="1" fill="none" fill-rule="evenodd">
        <g id="店铺-店铺管理--页面管理-编辑装修" transform="translate(-287.000000, -151.000000)" fill-rule="nonzero">
            <g id="会员中心" transform="translate(262.000000, 81.000000)">
                <g id="基础组件-3列-">
                    <g id="fuwenben-copy" transform="translate(25.000000, 70.000000)">
                        <rect id="9" fill="#FFFFFF" x="0" y="0" width="30" height="30" rx="5"></rect>
                        <path d="M16.7024111,8 L6.30197269,8 C5.58303827,8 5,7.3296796 5,6.49747049 C5,5.6703204 5.58303827,5 6.30197269,5 L16.7024111,5 C17.4191536,5 18,5.6703204 18,6.49747049 C18,7.3296796 17.4191536,8 16.7024111,8 Z M23.6785714,24 L6.32589286,24 C5.59598214,24 5,23.3296796 5,22.5025295 C5,21.6703204 5.59375,21 6.32589286,21 L23.6785714,21 C24.4084821,21 25,21.6703204 25,22.5025295 C25,23.3296796 24.4084821,24 23.6785714,24 Z M11.5025259,20 C10.6753778,20 10,19.3722185 10,18.5981119 L10,7.40188806 C10,6.62778152 10.6728483,6 11.5025259,6 C12.3322036,6 12.9999929,6.62778152 12.9999929,7.40188806 L12.9999929,18.600472 C13.0025224,19.3722185 12.3322036,20 11.5025259,20 Z" id="Shape" fill="#828894"></path>
                        <path d="M23.718308,19 L17.2838545,19 C16.5746984,19 16,18.3296796 16,17.5025295 C16,16.6703204 16.5746984,16 17.2838545,16 L23.7161393,16 C24.4252955,16 24.9999939,16.6703204 24.9999939,17.5025295 C25.0021626,18.3296796 24.4274642,19 23.718308,19 Z" id="Path" fill="#D3D8DF"></path>
                        <path d="M23.6018893,13 L19.3981107,13 C18.6258435,13 18,12.3296796 18,11.5025295 C18,10.6703204 18.6258435,10 19.3981107,10 L23.6018893,10 C24.3741565,10 25,10.6703204 25,11.5025295 C25,12.3296796 24.3741565,13 23.6018893,13 Z" id="Path" fill="#D3D8DF"></path>
                    </g>
                </g>
            </g>
        </g>
    </g>
</svg>